<svg width="91" height="70" viewBox="0 0 91 70" xmlns="http://www.w3.org/2000/svg" xmlns:xlink="http://www.w3.org/1999/xlink"><title>Slice</title><defs><path id="a" d="M.056 8h6.967V.506H.056V8z"/><path id="c" d="M0 .234v37.094h10.007V.234H0z"/></defs><g fill="none" fill-rule="evenodd"><path d="M88.54 37.07c-3.534-.624-5.062-2.834-6.288-4.61-1.14-1.65-2.042-2.953-4.343-3.358-2.31-.406-3.6.51-5.23 1.67-1.76 1.25-3.95 2.804-7.49 2.18-3.54-.623-5.06-2.833-6.29-4.607-1.14-1.65-2.04-2.954-4.34-3.36-2.3-.405-3.59.512-5.23 1.673-1.76 1.248-3.95 2.803-7.49 2.18-3.54-.624-5.06-2.833-6.29-4.608-1.14-1.65-2.04-2.953-4.34-3.358-.82-.144-1.36-.922-1.22-1.738.14-.817.92-1.36 1.73-1.217 3.53.623 5.06 2.833 6.28 4.608 1.13 1.65 2.04 2.953 4.33 3.358 2.3.406 3.6-.51 5.23-1.672 1.76-1.24 3.95-2.8 7.48-2.17 3.53.63 5.06 2.83 6.284 4.61 1.14 1.65 2.04 2.96 4.34 3.36 2.3.41 3.59-.51 5.23-1.67 1.76-1.25 3.95-2.8 7.483-2.18 3.535.63 5.06 2.84 6.29 4.61 1.14 1.65 2.04 2.96 4.34 3.36.817.14 1.36.92 1.22 1.74-.15.82-.925 1.36-1.74 1.22" fill="#F4B89B"/><path d="M87.13 45.07c-3.535-.623-5.063-2.833-6.29-4.608-1.14-1.65-2.04-2.953-4.342-3.36-2.3-.404-3.594.512-5.23 1.673-1.76 1.248-3.95 2.802-7.485 2.18-3.535-.624-5.06-2.834-6.287-4.61-1.14-1.65-2.04-2.952-4.34-3.357-2.3-.406-3.59.51-5.225 1.67-1.76 1.25-3.95 2.804-7.48 2.18-3.53-.622-5.06-2.832-6.28-4.607-1.14-1.64-2.04-2.95-4.33-3.35-.81-.14-1.36-.92-1.21-1.74.15-.81.92-1.36 1.74-1.21 3.54.63 5.06 2.83 6.29 4.61C37.8 32.19 38.7 33.5 41 33.9c2.3.41 3.59-.51 5.23-1.67 1.76-1.25 3.95-2.8 7.486-2.18 3.533.63 5.06 2.84 6.286 4.61 1.14 1.65 2.04 2.96 4.34 3.36 2.3.41 3.59-.51 5.225-1.67 1.76-1.25 3.95-2.8 7.486-2.18 3.535.63 5.06 2.84 6.29 4.61 1.14 1.65 2.04 2.95 4.34 3.36.817.15 1.36.92 1.22 1.74-.146.82-.924 1.36-1.74 1.22" fill="#F4B89B"/><path d="M85.72 53.072c-3.536-.623-5.063-2.833-6.29-4.608-1.14-1.65-2.042-2.953-4.343-3.36-2.3-.405-3.594.512-5.23 1.672-1.76 1.25-3.95 2.803-7.485 2.18-3.535-.624-5.06-2.834-6.287-4.608-1.14-1.65-2.04-2.953-4.338-3.36-2.3-.404-3.592.512-5.227 1.673-1.76 1.25-3.95 2.81-7.484 2.18-3.535-.62-5.06-2.83-6.287-4.6-1.14-1.65-2.04-2.95-4.34-3.36-.82-.14-1.36-.92-1.22-1.74.14-.81.92-1.36 1.73-1.21 3.53.63 5.06 2.84 6.28 4.61 1.14 1.65 2.04 2.95 4.34 3.36 2.3.41 3.59-.51 5.22-1.67 1.76-1.25 3.95-2.8 7.48-2.18 3.53.63 5.06 2.84 6.29 4.61 1.14 1.65 2.04 2.96 4.34 3.36 2.3.41 3.59-.51 5.22-1.67 1.76-1.25 3.95-2.8 7.49-2.18 3.53.63 5.06 2.84 6.29 4.61 1.14 1.65 2.04 2.96 4.34 3.36.81.15 1.36.92 1.21 1.74-.15.82-.92 1.36-1.74 1.22" fill="#F4B89B"/><path d="M6.126 48.34l-3.798 2.55.49.732c.817 1.214 2.12 1.516 3.28.737 1.188-.8 1.335-2.08.52-3.29l-.492-.73zm.826 5.29c-1.78 1.197-3.94.686-5.24-1.248L.384 50.41l6.027-4.052 1.33 1.972c1.3 1.936 1.03 4.084-.78 5.3zM13.9 57.1l-2.526-2.274-.986 1.096 1.855 1.67-.845.94-1.856-1.67-1.23 1.365 2.626 2.36-.897 1-3.72-3.357 4.86-5.39 3.63 3.267m.03 6.985l2.77 1.554-.65 1.17-4.06-2.28 3.55-6.33 1.3.727m3.41 9.463l-1.4-.494 2.42-6.85 1.4.497" fill="#575757"/><g transform="rotate(10 -333.06 173.446)"><mask id="b" fill="#fff"><use xlink:href="#a"/></mask><path fill="#575757" mask="url(#b)" d="M7.023.506L4.01 7.986 3.514 8 .054.71 1.74.663l1.942 4.34L5.35.553"/></g><path fill="#575757" d="M38.36 62.95l-3.385.326.14 1.467 2.488-.24.12 1.26-2.485.24.177 1.83 3.516-.34.13 1.336-4.99.48-.69-7.23 4.86-.47m4.39 2.31l1.18-.41c.66-.23.9-.76.69-1.35-.2-.57-.72-.84-1.38-.61l-1.17.41.69 1.96zm4.09 2.67l-2.62-1.8-1.03.36.85 2.41-1.4.49-2.41-6.84 2.58-.91c1.44-.51 2.78 0 3.25 1.34.31.89.09 1.76-.52 2.38l2.89 2.01-1.57.55zm5.23-6.07l1.56 2.4-1.24.81-1.55-2.39L46.19 59l1.385-.897 2.92 1.545-.23-3.29 1.377-.896"/><g transform="rotate(10 -32.808 32.71)"><mask id="d" fill="#fff"><use xlink:href="#c"/></mask><path d="M3.663 37.328c-.138 0-.27-.076-.336-.208C-2.766 24.83-.338 10.05 9.367.344c.147-.147.385-.147.53 0 .147.146.147.383 0 .53C.42 10.354-1.95 24.784 4 36.786c.09.186.016.41-.17.503-.054.02-.11.03-.167.03" fill="#575757" mask="url(#d)"/></g><path d="M58.628 52.737l-.407-.29c7.64-10.765 7.68-25.267.11-36.085l.41-.287c7.7 10.992 7.65 25.725-.1 36.662" fill="#7F7F81"/><path d="M58.36 52.962c-.054-.01-.105-.03-.152-.063-.17-.13-.21-.36-.09-.53 7.606-10.72 7.646-25.17.103-35.94-.11-.17-.07-.41.1-.53.17-.12.41-.08.53.09 7.72 11.03 7.68 25.82-.11 36.8-.08.12-.23.17-.37.15M27.57 1.52l-3.25.515.283 1.79 2.66-.42.21 1.325-2.66.422.44 2.726-1.463.232L22.64.945l4.714-.748m4.63 3.237l1.242.045c.692.02 1.114-.38 1.136-1.01.023-.61-.368-1.05-1.06-1.08l-1.242-.04-.076 2.07zm2.824 3.977l-1.785-2.63-1.087-.03-.095 2.56-1.48-.05.27-7.25 2.73.1c1.53.06 2.58 1.02 2.53 2.44-.03.94-.55 1.66-1.35 2.02l1.95 2.93-1.67-.06zm9.442-4.2l-3.304-.79-.344 1.44 2.426.59-.295 1.23-2.427-.58-.43 1.79 3.432.83-.313 1.3-4.875-1.17 1.7-7.06 4.75 1.14m7.258 4.43l-3.092-1.41-.61 1.34 2.27 1.03-.522 1.15-2.27-1.03-.76 1.67 3.21 1.46-.553 1.22-4.56-2.08 3-6.6 4.44 2.02m-1.01 40.32L48.81 45c-.2-.04-.34-.23-.3-.44.04-.206.23-.34.437-.306l2.567.46c1.213.22 2.403-.77 2.654-2.2l.56-3.18c.27-1.53-.145-3.97-.907-5.32l-1.39-2.46c-.75-1.33-2.66-2.68-4.17-2.95l-3.22-.56c-.21-.032-.34-.23-.31-.43.04-.204.23-.34.44-.305l3.21.57c1.73.3 3.83 1.79 4.69 3.32l1.39 2.46c.85 1.5 1.3 4.11 1 5.81l-.56 3.18c-.32 1.83-1.9 3.09-3.52 2.8m-8.65-1.53l-15.83-2.8c-.206-.034-.34-.23-.306-.433.037-.203.23-.34.435-.304l15.83 2.79c.2.04.34.23.3.437-.038.206-.23.34-.436.307" fill="#575757"/><path d="M20.804 40.052l-1.846-.325c-1.242-.22-1.957-1.85-1.63-3.715l2.42-13.722c.324-1.832 2.078-3.06 3.91-2.738l19.238 3.392c1.833.324 3.06 2.078 2.738 3.91l-1.744 9.888c-.036.204-.23.34-.434.304-.204-.036-.34-.23-.304-.435l1.743-9.88c.25-1.42-.704-2.79-2.13-3.04l-19.235-3.4c-1.426-.25-2.79.71-3.042 2.13l-2.42 13.73c-.247 1.4.22 2.71 1.02 2.85l1.846.33c.204.04.34.23.304.44-.036.2-.23.34-.434.3" fill="#575757"/><path d="M24.382 37.546c-1.473-.26-2.884.728-3.144 2.202-.26 1.473.728 2.884 2.202 3.144 1.473.26 2.884-.728 3.144-2.2.26-1.476-.73-2.886-2.202-3.146M23.31 43.63c-1.882-.33-3.142-2.13-2.81-4.012.33-1.88 2.13-3.142 4.012-2.81 1.88.332 3.142 2.132 2.81 4.013-.332 1.89-2.132 3.15-4.013 2.81m22.99-2.22c-1.48-.26-2.89.73-3.15 2.21-.26 1.48.73 2.89 2.2 3.15 1.47.26 2.88-.73 3.14-2.2.26-1.47-.73-2.88-2.2-3.14m-1.07 6.09c-1.88-.33-3.14-2.13-2.81-4.01.33-1.88 2.13-3.14 4.01-2.81 1.88.33 3.14 2.13 2.81 4.02-.34 1.88-2.14 3.14-4.02 2.81M16.41 23l-7.06-1.24c-.21-.037-.34-.23-.31-.436.04-.203.23-.34.44-.303l7.06 1.25c.21.04.34.23.31.44-.04.2-.23.34-.43.3m-.78 4.41l-4.14-.73c-.21-.04-.34-.23-.31-.44.035-.21.23-.34.433-.31l4.135.73c.2.038.34.23.303.43-.04.2-.23.34-.43.308" fill="#575757"/></g></svg>
